<svg xmlns="http://www.w3.org/2000/svg" viewBox="0 0 175.72 57.84"><title>CKAN</title><path class="a" d="M85.32 44.81a18.91 18.91 0 0 1-4.3.45 12.86 12.86 0 0 1-5-.87 8.55 8.55 0 0 1-3.37-2.47 10.17 10.17 0 0 1-1.92-3.85 18.79 18.79 0 0 1-.61-4.94q0-6 2.66-9.17t7.66-3.14a17.58 17.58 0 0 1 3.75.38 14.39 14.39 0 0 1 3.11 1l1.35-5.06A20.75 20.75 0 0 0 84.36 16a26.53 26.53 0 0 0-4.49-.38 16.29 16.29 0 0 0-6.64 1.31 14.23 14.23 0 0 0-5 3.65A16.64 16.64 0 0 0 65 26.09a21.21 21.21 0 0 0-1.12 7.05 22.73 22.73 0 0 0 1 7A14.88 14.88 0 0 0 68 45.65a14.23 14.23 0 0 0 5.13 3.59 18.15 18.15 0 0 0 7.08 1.28 23.38 23.38 0 0 0 2.66-.16q1.38-.16 2.6-.38a20.62 20.62 0 0 0 2.18-.51 6.22 6.22 0 0 0 1.47-.61l-.83-5a15.56 15.56 0 0 1-2.97.95zM112.6 39.78q-2.08-2.53-4.23-4.71a40.07 40.07 0 0 0-4.07-3.65l3.56-3.69q1.89-2 3.75-3.91t3.59-3.88q1.73-1.92 3.21-3.53h-7q-1.15 1.35-2.76 3.11t-3.4 3.69q-1.8 1.92-3.65 3.78l-3.4 3.4V0l-6 1v48.75h6v-16a35.4 35.4 0 0 1 3.78 3 52.85 52.85 0 0 1 3.91 3.94q1.92 2.15 3.69 4.49a53 53 0 0 1 3.11 4.58h7a57 57 0 0 0-3.14-4.84q-1.86-2.61-3.95-5.14z"/><path class="a" d="M141.39 19.14a9.83 9.83 0 0 0-4-2.63 17.31 17.31 0 0 0-6.06-.93 33.25 33.25 0 0 0-5.83.48 18.4 18.4 0 0 0-3.85 1l.71 4.94a18.12 18.12 0 0 1 3.3-.87 28.21 28.21 0 0 1 5.16-.42 8.93 8.93 0 0 1 3.75.67 5.85 5.85 0 0 1 2.28 1.79 6.71 6.71 0 0 1 1.15 2.57 13.46 13.46 0 0 1 .32 2.92v1.67l-.9-.19-1.51-.29q-.86-.16-1.83-.26t-1.86-.1a24.46 24.46 0 0 0-5.39.58 14.1 14.1 0 0 0-4.49 1.79 8.94 8.94 0 0 0-3 3.21 9.5 9.5 0 0 0-1.12 4.74 11.56 11.56 0 0 0 1 4.94 8.36 8.36 0 0 0 2.69 3.3 11.61 11.61 0 0 0 4.1 1.83 22 22 0 0 0 5.19.58q2 0 4-.16t3.75-.35q1.73-.19 3.11-.42l2.15-.35V28.34a19.58 19.58 0 0 0-.64-5.16 10 10 0 0 0-2.18-4.04zm-3 25.87a16.21 16.21 0 0 1-2.72.35q-1.63.1-3.75.1a10.68 10.68 0 0 1-5.58-1.25q-2.05-1.25-2.05-4.46a4.38 4.38 0 0 1 .83-2.79 5.9 5.9 0 0 1 2.08-1.67 8.8 8.8 0 0 1 2.76-.8 22.63 22.63 0 0 1 2.85-.19 23.19 23.19 0 0 1 3.49.22 7.69 7.69 0 0 1 2.08.54zM175.08 24.81a12.17 12.17 0 0 0-2.22-4.81 10.34 10.34 0 0 0-4.2-3.14 16.91 16.91 0 0 0-6.6-1.12 47.14 47.14 0 0 0-7.82.58q-3.4.58-5.45 1.09v32.34h6V21.61l1.06-.19q.74-.13 1.67-.22t2-.16q1-.06 2-.06a11.28 11.28 0 0 1 4 .61 5.47 5.47 0 0 1 2.56 2 8.91 8.91 0 0 1 1.38 3.53 28.5 28.5 0 0 1 .42 5.26v17.37h6V31a28.13 28.13 0 0 0-.8-6.19zM52.59 3.34H1.41L27 28.93 52.59 3.34zM0 4.75v51.18l25.59-25.59L0 4.75zM53.43 57.91V5.32L.85 57.91h52.58z"/></svg>
