<?xml version="1.0" encoding="UTF-8" standalone="no"?>
<svg width="161px" height="20px" viewBox="0 0 161 20" version="1.1" xmlns="http://www.w3.org/2000/svg" xmlns:xlink="http://www.w3.org/1999/xlink">
    <!-- Generator: Sketch 3.8.2 (29753) - http://www.bohemiancoding.com/sketch -->
    <title>logoHeader</title>
    <desc>Created with Sketch.</desc>
    <defs></defs>
    <g id="Symbols" stroke="none" stroke-width="1" fill="none" fill-rule="evenodd">
        <g id="headerDesktop" transform="translate(-49.000000, -30.000000)">
            <g id="header">
                <g id="primaryNav">
                    <g id="logoHeader" transform="translate(49.000000, 30.000000)">
                        <g id="Group">
                            <path d="M17.7785714,0.895142857 C17.7821429,0.519428571 18.0207143,0.289428571 18.4942857,0.289428571 L23.0592857,0.289428571 C23.3628571,0.289428571 23.6992857,0.519428571 23.8328571,0.779428571 L29.505,11.4701429 C29.9714286,12.3937143 30.6728571,13.6658571 30.9707143,14.7908571 L31.0371429,14.7908571 L31.9785714,0.923 C31.9807143,0.489428571 32.1864286,0.289428571 32.7285714,0.289428571 L35.3635714,0.289428571 C36.0057143,0.289428571 36.0392857,0.519428571 36.0371429,0.895142857 L34.83,18.5201429 C34.8278571,18.8658571 34.6235714,19.068 34.0821429,19.068 L29.4828571,19.068 C29.1471429,19.068 28.8114286,18.808 28.6792857,18.548 L23.075,7.62728571 C22.2735714,6.18157143 21.8414286,5.23014286 21.6114286,4.27585714 L21.5435714,4.27585714 L20.6314286,18.5201429 C20.6292857,18.8658571 20.3914286,19.068 19.9857143,19.068 L17.1785714,19.068 C16.605,19.068 16.5728571,18.808 16.575,18.5201429 L17.7785714,0.895142857 Z" id="Fill-1" fill="#FEFEFE"></path>
                            <path d="M91.0016429,17.6828571 C90.9916429,18.9542857 87.4723571,19.3585714 84.8373571,19.3585714 C77.5809286,19.3585714 74.1345,16.4692857 74.1737857,10.6607143 C74.2259286,3.19857143 79.6423571,0 86.5609286,0 C88.8923571,0 92.0673571,0.375714286 92.0630714,1.21357143 L91.9095,3.525 C91.9095,3.785 91.8030714,4.10285714 91.5352143,4.10285714 C90.6237857,4.10285714 89.4459286,3.17857143 86.6066429,3.17857143 C81.6823571,3.17857143 79.2766429,6.14571429 79.2466429,10.4307143 C79.2209286,14.2157143 81.0502143,16.035 85.0973571,16.035 C85.4352143,16.035 85.7409286,15.9771429 86.0452143,15.9192857 L86.4230714,10.4307143 C86.4252143,10.0528571 86.6266429,9.88071429 87.1666429,9.88071429 L90.8859286,9.88071429 C91.4952143,9.88071429 91.4930714,10.1407143 91.4916429,10.4307143 L91.0016429,17.6828571 Z" id="Fill-3" fill="#FEFEFE"></path>
                            <path d="M96.3353571,0.836928571 C96.3375,0.461214286 96.5432143,0.289071429 96.9810714,0.289071429 L100.566071,0.289071429 C101.073929,0.289071429 101.071786,0.519071429 101.0675,0.836928571 L99.8603571,18.5197857 C99.8582143,18.8655 99.6903571,19.0676429 99.2846429,19.0676429 L95.7017857,19.0676429 C95.1260714,19.0676429 95.1282143,18.8076429 95.1296429,18.5197857 L96.3353571,0.836928571 Z" id="Fill-5" fill="#FEFEFE"></path>
                            <path d="M105.697786,0.895142857 C105.702071,0.519428571 105.939929,0.289428571 106.4135,0.289428571 L110.974214,0.289428571 C111.279929,0.289428571 111.614214,0.519428571 111.752071,0.779428571 L117.422786,11.4701429 C117.889929,12.3937143 118.589929,13.6658571 118.887786,14.7908571 L118.954214,14.7908571 L119.895643,0.923 C119.899929,0.489428571 120.105643,0.289428571 120.6435,0.289428571 L123.280643,0.289428571 C123.922786,0.289428571 123.952786,0.519428571 123.950643,0.895142857 L122.747071,18.5201429 C122.744929,18.8658571 122.541357,19.068 121.999214,19.068 L117.402071,19.068 C117.067071,19.068 116.7285,18.808 116.594929,18.548 L110.992071,7.62728571 C110.190643,6.18157143 109.7585,5.23014286 109.527071,4.27585714 L109.462786,4.27585714 L108.549214,18.5201429 C108.549214,18.8658571 108.309214,19.068 107.904929,19.068 L105.095643,19.068 C104.522071,19.068 104.494214,18.808 104.494214,18.5201429 L105.697786,0.895142857 Z" id="Fill-7" fill="#01525E"></path>
                            <path d="M149.182643,3.3215 L144.351929,3.3215 C143.778357,3.3215 143.744071,3.0915 143.746214,2.88792857 L143.896214,0.835785714 C143.899786,0.462214286 144.136214,0.288642857 144.544071,0.288642857 L159.634071,0.288642857 C160.243357,0.288642857 160.2755,0.517928571 160.273357,0.835785714 L160.123357,2.74364286 C160.123357,3.11935714 159.883357,3.3215 159.411929,3.3215 L153.916929,3.3215 L152.861214,18.5215 C152.859786,18.8672143 152.657643,19.0693571 152.251929,19.0693571 L148.736214,19.0693571 C148.194786,19.0693571 148.129071,18.8372143 148.131214,18.5215 L149.182643,3.3215 Z" id="Fill-9" fill="#01525E"></path>
                            <path d="M13.7522143,0.288785714 L1.88792857,0.288785714 C1.41364286,0.288785714 1.2115,0.460928571 1.20792857,0.836642857 L7.14285714e-05,18.5216429 C-0.00207142857,18.8073571 0.0322142857,19.0673571 0.607928571,19.0673571 L12.4729286,19.0673571 C12.9443571,19.0673571 13.1865,18.8673571 13.1886429,18.5216429 L13.3000714,16.5845 C13.3043571,16.2102143 13.2365,16.0366429 12.6622143,16.0366429 L5.37864286,16.0366429 C5.01864286,16.0045 4.93292857,15.8345 4.91435714,15.6302143 L5.7165,3.8695 L5.71864286,3.8695 C5.72078571,3.49378571 5.92435714,3.32235714 6.3965,3.32235714 L13.5300714,3.32235714 C14.0365,3.32235714 14.2057857,3.12021429 14.2443571,2.7445 L14.3900714,0.8945 C14.3922143,0.548785714 14.3622143,0.288785714 13.7522143,0.288785714" id="Fill-11" fill="#FEFEFE"></path>
                            <path d="M11.4127857,7.53007143 L9.10564286,7.53007143 C8.52564286,7.53007143 8.27778571,7.74221429 8.2735,8.20221429 L8.09207143,10.5729286 C8.08778571,10.9607857 8.17135714,11.2429286 8.86135714,11.2450714 L11.1727857,11.2450714 C11.7485,11.2450714 11.9985,11.0329286 12.0027857,10.5729286 L12.1842143,8.20221429 C12.1885,7.81364286 12.1049286,7.53435714 11.4127857,7.53007143" id="Fill-14" fill="#FEFEFE"></path>
                            <path d="M53.156,0.288785714 L41.2895714,0.288785714 C40.8174286,0.288785714 40.6138571,0.460928571 40.6117143,0.836642857 L39.406,18.5216429 C39.4038571,18.8073571 39.436,19.0673571 40.0117143,19.0673571 L51.8745714,19.0673571 C52.3502857,19.0673571 52.5881429,18.8673571 52.5902857,18.5216429 L52.706,16.5845 C52.7081429,16.2102143 52.6424286,16.0366429 52.066,16.0366429 L44.7845714,16.0366429 C44.4167143,16.0023571 44.3345714,15.8323571 44.3181429,15.6223571 L45.1224286,3.8695 C45.1245714,3.49378571 45.3281429,3.32235714 45.8024286,3.32235714 L52.9324286,3.32235714 C53.4402857,3.32235714 53.6117143,3.12021429 53.6481429,2.7445 L53.7938571,0.8945 C53.7981429,0.548785714 53.766,0.288785714 53.156,0.288785714" id="Fill-16" fill="#FEFEFE"></path>
                            <path d="M50.818,7.53007143 L48.5087143,7.53007143 C47.9287143,7.53007143 47.6787143,7.74221429 47.6765714,8.20221429 L47.493,10.5729286 C47.4908571,10.9607857 47.5751429,11.2429286 48.2665714,11.2450714 L50.5722857,11.2450714 C51.1537143,11.2450714 51.4022857,11.0329286 51.4058571,10.5729286 L51.588,8.20221429 C51.5915714,7.81364286 51.508,7.53435714 50.818,7.53007143" id="Fill-18" fill="#FEFEFE"></path>
                            <path d="M141.072429,0.288785714 L129.207429,0.288785714 C128.736,0.288785714 128.531714,0.460928571 128.527429,0.836642857 L127.320286,18.5216429 C127.320286,18.8073571 127.352429,19.0673571 127.926,19.0673571 L139.792429,19.0673571 C140.264571,19.0673571 140.504571,18.8673571 140.506714,18.5216429 L140.620286,16.5845 C140.622429,16.2102143 140.556714,16.0366429 139.982429,16.0366429 L132.698857,16.0366429 C132.336714,16.0045 132.251,15.8345 132.234571,15.6302143 L133.036714,3.8695 C133.038857,3.49378571 133.244571,3.32235714 133.716714,3.32235714 L140.848143,3.32235714 C141.354571,3.32235714 141.526,3.12021429 141.563857,2.7445 L141.710286,0.8945 C141.713857,0.548785714 141.682429,0.288785714 141.072429,0.288785714" id="Fill-20" fill="#01525E"></path>
                            <path d="M138.732571,7.53007143 L136.423286,7.53007143 C135.843286,7.53007143 135.593286,7.74221429 135.589,8.20221429 L135.409714,10.5729286 C135.405429,10.9607857 135.489,11.2429286 136.181143,11.2450714 L138.488286,11.2450714 C139.068286,11.2450714 139.318286,11.0329286 139.322571,10.5729286 L139.504,8.20221429 C139.506143,7.81364286 139.422571,7.53435714 138.732571,7.53007143" id="Fill-22" fill="#01525E"></path>
                            <path d="M64.1794286,8.80507143 C63.7537143,8.85507143 63.5272857,8.97078571 63.5058571,9.31292857 L63.398,11.3700714 C63.3837143,11.5886429 63.4215714,11.8665 63.548,12.1079286 L67.2087143,18.7786429 C67.3444286,19.0100714 67.4687143,19.0700714 67.8144286,19.0686429 L72.2351429,19.0686429 C72.683,19.0765 72.9408571,18.9000714 72.5794286,18.3765 L67.5187143,10.4386429 C69.098,10.2265 72.0558571,9.18935714 72.0558571,5.32578571 C72.0558571,3.0665 70.6758571,0.289357143 64.9372857,0.289357143 L57.873,0.289357143 C57.4337143,0.289357143 57.1951429,0.4615 57.1937143,0.835071429 L55.988,18.5200714 C55.9858571,18.8086429 56.018,19.0686429 56.5915714,19.0686429 L60.1408571,19.0686429 C60.5487143,19.0686429 60.7187143,18.8665 60.7208571,18.5200714 L61.1022857,13.0657857 C61.1044286,13.0622143 61.1022857,13.0600714 61.1022857,13.0557857 L61.3987143,8.85507143 L61.3944286,8.85507143 L61.7401429,3.17864286 L63.6637143,3.17864286 C66.2072857,3.18435714 67.0487143,4.68007143 67.0151429,6.09007143 C66.9844286,7.4415 66.263,8.55507143 64.1794286,8.80507143" id="Fill-24" fill="#FEFEFE"></path>
                        </g>
                    </g>
                </g>
            </g>
        </g>
    </g>
</svg>