<svg viewBox="0 0 70 68" fill="none" xmlns="http://www.w3.org/2000/svg"><path d="M56.0003 51.3091l-1.2-5.9c2.9-.6 5.5-2.3 7.1-4.8 1.7-2.5 2.2-5.5 1.6-8.5-1.1-5.2-5.7-9-11-9h-3.6c-1.4 0-2.6-.9-2.9-2.2-1.3-5.1-4.6-9.4-9.1-12.09997-4.6-2.7-9.9-3.4-15-2.1-5.1 1.3-9.4 4.59997-12.09996 9.09997-2.7 4.5-3.4 9.9-2.1 15 1.4 5.2 4.89996 9.8 9.59996 12.4l-2.9 5.2c-6.19996-3.4-10.79996-9.3-12.59996-16.1-1.699999-6.7-.7-13.6 2.8-19.6C8.10034 6.80913 13.7003 2.60913 20.4003.80913c6.7-1.7 13.6-.7 19.5 2.8 5.3 3.1 9.2 7.89997 11.2 13.49997h1.4c8.2 0 15.3 5.8 16.9 13.8.9 4.5 0 9.1-2.5 13-2.5 3.9-6.4 6.5-10.9 7.4z" fill="#fff"/><path d="M35.1004 67.4096l-5-3.3 8.3-12.5h-11.5c-1.1 0-2.1-.6-2.6-1.6s-.5-2.2.1-3.1l11.4-17.1 5 3.3-8.3 12.5h11.5c1.1 0 2.1.6 2.6 1.6s.5 2.2-.1 3.1l-11.4 17.1z" fill="#fff"/></svg>
