<svg viewBox="0 0 72 57" fill="none" xmlns="http://www.w3.org/2000/svg"><path d="M54 57h-6v-6c0-5-4-9-9-9H15c-5 0-9 4-9 9v6H0v-6c0-8.3 6.7-15 15-15h24c8.3 0 15 6.7 15 15v6zM27 30c-8.3 0-15-6.7-15-15S18.7 0 27 0s15 6.7 15 15-6.7 15-15 15zm0-24c-5 0-9 4-9 9s4 9 9 9 9-4 9-9-4-9-9-9zM72.0002 57h-6v-6c0-4.1-2.8-7.7-6.8-8.7l1.5-5.8c6.7 1.7 11.3 7.7 11.3 14.5v6zM48.7002 29.5l-1.5-5.8c3.2-.8 5.7-3.3 6.5-6.5.6-2.3.3-4.8-1-6.8-1.2-2.1-3.2-3.5-5.5-4.1l1.5-5.8c3.9 1 7.1 3.4 9.2 6.9 2 3.4 2.6 7.5 1.6 11.4-1.3 5.2-5.4 9.4-10.8 10.7z" fill="#fff"/></svg>
