<svg id="Layer_1" data-name="Layer 1" xmlns="http://www.w3.org/2000/svg" viewBox="0 0 31.04 50.38"><defs><style>.cls-1{fill:#fff;}</style></defs><title>energy</title><path class="cls-1" d="M35.93,33.68h-6.4a2.11,2.11,0,0,1-2.05-1.22c-1.53-2.62-3.31-5.1-4.94-7.66A15.42,15.42,0,0,1,24,7.16,16.41,16.41,0,0,1,31.75,2,15.53,15.53,0,0,1,50.09,23.32,23.76,23.76,0,0,1,47.85,27c-1.16,1.82-2.4,3.59-3.47,5.46a2.17,2.17,0,0,1-2.17,1.28c-2.09-.06-4.18,0-6.28,0ZM36,30.42v0c1.53,0,3.06-.05,4.58,0a1.78,1.78,0,0,0,1.85-1.07,27.17,27.17,0,0,1,2.66-4,12.86,12.86,0,0,0,3.16-9.76,12.36,12.36,0,1,0-23.9,5.48,23.15,23.15,0,0,0,2.88,4.76c1,1.55,1.79,3.65,3.24,4.4S34.12,30.42,36,30.42Z" transform="translate(-20.42 -1.39)"/><path class="cls-1" d="M35.8,36.69h5.89c1,0,1.72.41,1.74,1.49s-.66,1.55-1.69,1.55c-3.88,0-7.76,0-11.64,0-1.13,0-1.75-.55-1.74-1.65s.86-1.39,1.82-1.39Z" transform="translate(-20.42 -1.39)"/><path class="cls-1" d="M35.83,42.89h5.74c1,0,1.73.28,1.79,1.42s-.82,1.55-1.68,1.56c-3.92.07-7.84.06-11.76,0a1.47,1.47,0,0,1-1.59-1.54c0-1,.64-1.46,1.62-1.46Z" transform="translate(-20.42 -1.39)"/><path class="cls-1" d="M39.51,48.93c-.63,2.23-1.63,2.91-4,2.84a3.22,3.22,0,0,1-3.08-2.84Z" transform="translate(-20.42 -1.39)"/></svg>