<svg id="Layer_1" data-name="Layer 1" xmlns="http://www.w3.org/2000/svg" viewBox="0 0 36.74 49.89"><defs><style>.cls-1{fill:#fff;}</style></defs><title>environment</title><g id="C0HH8e.tif"><path class="cls-1" d="M36.47,51.31c-4.87,0-9.75,0-14.62,0-.43,0-1,.23-1.26-.2s.28-.8.55-1.13a9.51,9.51,0,0,1,10.18-3.26,3.81,3.81,0,0,0,4.6-3.36c0-4.4-1.13-8.66-1.71-13-.15-1.14-1.38-1.14-2.17-1.59s-.94.32-1.28.66c-3.2,3.19-8,2.73-11.1-1.09-2.07-2.52-2.64-5.52-2.74-8.65s-.09-2.56,2.41-2.07a40.49,40.49,0,0,0,6.3.79,6.66,6.66,0,0,1,6.73,6.52,3.1,3.1,0,0,0,.11.92.85.85,0,0,0,1,.58c.41-.08.3-.51.29-.8a28.68,28.68,0,0,1,2-11.4c.37-1-.24-1.58-1.21-1.38-2.61.53-4.52-.51-5.32-3a16.59,16.59,0,0,1-.5-2.9c-.08-.69.22-1,1-.82a26.36,26.36,0,0,0,3.75.49,3.25,3.25,0,0,1,3,2.94c.09.44,0,1,.59,1.09s.65-.52.9-.85a3.93,3.93,0,0,0,.87-3.66c-.38-1.48.69-2.71,2-3.56a7.92,7.92,0,0,1,4.4-1.09c.59,0,.78.24.68.83-.25,1.41-.42,2.83-.67,4.23A3,3,0,0,1,42.42,9a2.22,2.22,0,0,0-2,1.34c-.51.94-1,1.87-1.57,2.81-.16.31-.46.68-.23,1s.77.22,1.14.13A6.09,6.09,0,0,0,41,13.66a3.14,3.14,0,0,1,3.34.05,29.15,29.15,0,0,0,3.42,1.89c.4.19.92.36.45,1-1.44,1.8-3,3.35-5.61,3.19a3.18,3.18,0,0,1-2.91-1.84c-.27-.56-.5-1-1.28-.86A1.56,1.56,0,0,0,37,18.33a25.47,25.47,0,0,0-.72,6.5c0,1.87.28,3.74.47,5.6,0,.4-.08,1,.56,1s.71-.56.78-1.08a6.61,6.61,0,0,1,3-4.86,5.86,5.86,0,0,1,3.18-1,35.55,35.55,0,0,0,8-1.11c1-.21,1.31,0,1.29,1a21.56,21.56,0,0,1-1,6.86,9.43,9.43,0,0,1-5.95,6,6.53,6.53,0,0,1-7.43-2.45c-.25-.32-.36-1-1-.69a1.1,1.1,0,0,0-.71,1.19,54,54,0,0,1,.86,8.51c0,.63.53.65,1,.65a9.45,9.45,0,0,1,5.86,2.13,4,4,0,0,0,1.78.59,9,9,0,0,1,5,3c.23.25.63.51.44.9s-.65.21-1,.22Z" transform="translate(-16.89 -1.48)"/></g></svg>