<svg id="Layer_1" data-name="Layer 1" xmlns="http://www.w3.org/2000/svg" viewBox="0 0 56.27 49.69"><defs><style>.cls-1{fill:#fff;}</style></defs><title>health</title><g id="xz8KY9.tif"><path class="cls-1" d="M37.47,31.72a3.18,3.18,0,0,1-.15-.41c-.42-1.25-.83-2.5-1.27-3.74-.26-.74-.57-1.46-.89-2.17A1.27,1.27,0,0,0,34,24.67a1.55,1.55,0,0,0-1.16.49C31.86,26,31,26.91,30,27.78a.66.66,0,0,1-.39.17c-.82,0-1.63,0-2.44.06a1.42,1.42,0,0,0-1.5,1.33A1.49,1.49,0,0,0,27,31.19l.37,0,3.68,0a.66.66,0,0,0,.39-.17c.46-.43.9-.87,1.35-1.3a3.23,3.23,0,0,1,.32-.26c.07.17.12.29.16.41.43,1.21.85,2.42,1.27,3.63s.78,2.27,1.18,3.41a1.38,1.38,0,0,0,1.25.91,1.34,1.34,0,0,0,1.48-.64c.29-.54.62-1.07.9-1.62q2-3.8,3.91-7.6c.08-.14.17-.28.29-.47,0,.15.09.24.13.34q2,6.06,4.07,12.11c.41,1.23.87,2.45,1.31,3.67a1.22,1.22,0,0,0,.91.79,1.46,1.46,0,0,0,1.8-.73c.15-.26.31-.52.45-.8Q55.12,37.22,58,31.55a.45.45,0,0,1,.47-.29c1.74,0,3.49,0,5.23-.05a1.72,1.72,0,0,0,.79-.2,1.55,1.55,0,0,0,.82-1.73A1.58,1.58,0,0,0,63.79,28C63,28,62.24,28,61.46,28c-1.44,0-2.88,0-4.33,0a1.47,1.47,0,0,0-1.37.78c-.27.49-.56,1-.81,1.45L51,38l-.24.46a3,3,0,0,1-.15-.4l-4.2-12.43c-.37-1.09-.75-2.17-1.13-3.25a1.43,1.43,0,0,0-1.37-.95,1.29,1.29,0,0,0-1.36.65c-.16.31-.36.59-.51.9l-3.83,7.41C38,30.79,37.75,31.22,37.47,31.72Z" transform="translate(-9.07 -1.45)"/><path class="cls-1" d="M9.07,15.49c.09-.6.15-1.21.27-1.81a15.19,15.19,0,0,1,5.55-8.95A14.6,14.6,0,0,1,22,1.61a13.8,13.8,0,0,1,7.56,1.05,15.84,15.84,0,0,1,7.56,6.81,2.12,2.12,0,0,0,.13.2c.06-.09.11-.15.15-.22a15.83,15.83,0,0,1,7-6.58A13.84,13.84,0,0,1,58.53,4a15,15,0,0,1,6.59,9.61A13.19,13.19,0,0,1,65.31,17a17.34,17.34,0,0,1-2,7.21,1.69,1.69,0,0,1-1.62,1.07,1.64,1.64,0,0,1-1.47-2.12c.42-1,.84-2,1.18-3.07A11.63,11.63,0,0,0,60,9.56a10.49,10.49,0,0,0-6.65-4.41A12,12,0,0,0,45,6.07,10.84,10.84,0,0,0,39.16,14c-.17.84-.25,1.7-.35,2.55a1.59,1.59,0,0,1-3,.7,1.65,1.65,0,0,1-.18-.62,17.3,17.3,0,0,0-.7-4A10.79,10.79,0,0,0,25.88,5a11.58,11.58,0,0,0-6.48.68A11,11,0,0,0,12.62,14a13.12,13.12,0,0,0,1,7.86A32.61,32.61,0,0,0,17.87,29a77.62,77.62,0,0,0,10,10.63c2.9,2.64,5.9,5.13,9,7.5.45.35.33.34.76,0,1.54-1.19,3.06-2.41,4.6-3.62.28-.21.58-.4.86-.62A1.52,1.52,0,0,1,45.47,44,1.49,1.49,0,0,1,45,45.4c-.82.69-1.62,1.4-2.46,2.06-1.28,1-2.57,2-3.88,3a7.92,7.92,0,0,1-1.25.68h-.29a11,11,0,0,1-1.46-.82c-2.21-1.74-4.42-3.47-6.57-5.28A95,95,0,0,1,18,34.16a49.12,49.12,0,0,1-6.45-9.27,22.27,22.27,0,0,1-2.18-5.95c-.11-.57-.17-1.15-.26-1.73Z" transform="translate(-9.07 -1.45)"/><path class="cls-1" d="M37.47,31.72c.28-.5.54-.93.77-1.38l3.83-7.41c.15-.31.35-.59.51-.9a1.29,1.29,0,0,1,1.36-.65,1.43,1.43,0,0,1,1.37.95c.38,1.08.76,2.16,1.13,3.25L50.64,38a3,3,0,0,0,.15.4L51,38,55,30.23c.25-.49.54-1,.81-1.45A1.47,1.47,0,0,1,57.13,28c1.45,0,2.89,0,4.33,0,.78,0,1.55,0,2.33.05a1.58,1.58,0,0,1,1.5,1.27A1.55,1.55,0,0,1,64.47,31a1.72,1.72,0,0,1-.79.2c-1.74,0-3.49,0-5.23.05a.45.45,0,0,0-.47.29q-2.86,5.67-5.74,11.32c-.14.28-.3.54-.45.8a1.46,1.46,0,0,1-1.8.73,1.22,1.22,0,0,1-.91-.79c-.44-1.22-.9-2.44-1.31-3.67q-2.06-6-4.07-12.11c0-.1-.08-.19-.13-.34-.12.19-.21.33-.29.47q-2,3.81-3.91,7.6c-.28.55-.61,1.08-.9,1.62a1.34,1.34,0,0,1-1.48.64,1.38,1.38,0,0,1-1.25-.91c-.4-1.14-.79-2.28-1.18-3.41s-.84-2.42-1.27-3.63c0-.12-.09-.24-.16-.41a3.23,3.23,0,0,0-.32.26c-.45.43-.89.87-1.35,1.3a.66.66,0,0,1-.39.17l-3.68,0-.37,0a1.49,1.49,0,0,1-1.33-1.85A1.42,1.42,0,0,1,27.19,28C28,28,28.81,28,29.63,28a.66.66,0,0,0,.39-.17c.93-.87,1.84-1.76,2.77-2.62A1.55,1.55,0,0,1,34,24.67a1.27,1.27,0,0,1,1.21.73c.32.71.63,1.43.89,2.17.44,1.24.85,2.49,1.27,3.74A3.18,3.18,0,0,0,37.47,31.72Z" transform="translate(-9.07 -1.45)"/></g></svg>