<svg viewBox="0 0 72 52" fill="none" xmlns="http://www.w3.org/2000/svg"><path d="M71.6 14.9s-.2-.8-1.5-.8h-8S58.8 0 49.8 0H21.9c-9 0-12.4 14.1-12.4 14.1h-8c-1.2 0-1.5.8-1.5.8 0 5.7 4.5 6.7 4.5 6.7s-.9 5.8-.9 13.1c0 2.6 1.1 6.3 2.7 7.9v9.1h11.2v-6.8h36.7v6.8h11.2v-9.1c1.6-1.6 2.7-5.2 2.7-7.8 0-7.3-.9-13.1-.9-13.1s4.4-1.1 4.4-6.8zM10.9 38.8c-.1-.2-.2-.3-.3-.5-.4-.6-1-2.4-1-3.6 0-6.7.8-12.1.8-12.1.1-.9.1-1.7-.1-2.5 2.4-.3 4.5-2.1 5.1-4.6.6-2.8 3.4-9.5 6.5-9.5h27.9c2.9 0 5.8 6.3 6.5 9.5.6 2.5 2.6 4.3 5.1 4.6-.2.8-.3 1.6-.1 2.5 0 .1.8 5.4.8 12.1 0 1.3-.6 3.1-1 3.7-.1.1-.2.3-.3.5H10.9v-.1z" fill="#fff"/><path d="M16.8998 24.4004c-2.2 0-4.1 1.8-4.1 4.1s1.8 4.1 4.1 4.1c2.2 0 4.1-1.8 4.1-4.1s-1.9-4.1-4.1-4.1zM58.8001 28.5004c0-2.2-1.8-4.1-4.1-4.1-2.2 0-4.1 1.8-4.1 4.1s1.8 4.1 4.1 4.1 4.1-1.8 4.1-4.1zM26.9 33.8004h17.7l3.4-7.9H23.5l3.4 7.9z" fill="#fff"/></svg>
