<svg viewBox="0 0 66 60" fill="none" xmlns="http://www.w3.org/2000/svg"><path d="M63.8.388544c-.9-.5-2.1-.5-3 0L43.3 10.3885 23.2.288544c-.9-.4-2-.4-2.8.1L1.5 11.1885c-.9.5-1.5 1.5-1.5 2.6v43.1c0 1.1.6 2.1 1.5 2.6s2.1.5 3 0l17.5-10 20.1 10.1c.4.2.9.3 1.3.3.5 0 1-.1 1.5-.4l18.9-10.8c.9-.5 1.5-1.5 1.5-2.6V2.98854c0-1.1-.6-2.099996-1.5-2.599996zM24.9 7.88854l15.6 7.79996v36.3l-15.6-7.8V7.88854zM6 15.4885l12.9-7.29996V44.3885l-12.9 7.3v-36.2zm53.3 28.9l-12.9 7.3v-36.2l12.9-7.29996V44.3885z" fill="#fff"/></svg>
