<svg viewBox="0 0 32 32" xmlns="http://www.w3.org/2000/svg"><path d="M21.0013 23.3072c-2.1807 1.7078-4.9626 2.7385-7.9851 2.7385C5.82756 26.0457 0 20.2152 0 13.0229 0 5.83052 5.82756 0 13.0162 0c7.1887 0 13.0163 5.83052 13.0163 13.0229 0 3.024-1.0302 5.8073-2.7586 8.0177l.0215-.0286L32 29.6884 29.6896 32l-8.672-8.6928h-.0163zm-7.9725-.5209c5.3916 0 9.7622-4.3729 9.7622-9.7671 0-5.39425-4.3706-9.76714-9.7622-9.76714-5.39146 0-9.76213 4.37289-9.76213 9.76714 0 5.3942 4.37067 9.7671 9.76213 9.7671z"/></svg>
