<svg viewBox="0 0 295 23" fill="none" xmlns="http://www.w3.org/2000/svg"><title>Open Data DK</title><path d="M274.862 21.5626h5.271v-6.2292l2.156-2.276 5.391 8.4453h6.528l-8.385-12.21875 7.427-7.90626h-6.529l-6.648 7.72654V1.37769h-5.271V21.5626h.06zm-23.24-15.63284h2.456c3.594 0 5.57 1.7969 5.57 5.45054 0 4.013-1.557 5.5703-5.57 5.6901h-2.456V5.92976zm-5.271 15.63284h8.685c6.11 0 9.883-3.5338 9.883-10.1823 0-6.22917-3.713-10.00261-9.883-10.00261h-8.685V21.5626zm-44.921 0h5.39l1.258-3.5937h7.008l1.258 3.5937h5.45l-7.487-20.12503h-5.331L201.43 21.5626zm10.182-14.55472l2.276 7.06772h-4.552l2.276-7.06772zm-14.854-5.57031h-17.25v4.49219h5.989V21.5626h5.271V5.92976h5.99V1.43757zM154.411 21.5626h5.391l1.258-3.5937h7.008l1.257 3.5937h5.451l-7.547-20.12503h-5.331l-7.487 20.12503zm10.123-14.55472l2.276 7.06772h-4.552l2.276-7.06772zm-31.326-1.07812h2.456c3.594 0 5.57 1.7969 5.57 5.45054 0 4.013-1.557 5.5703-5.57 5.6901h-2.456V5.92976zm-5.211 15.63284h8.685c6.109 0 9.883-3.5338 9.883-10.1823 0-6.22917-3.714-10.00261-9.883-10.00261h-8.685V21.5626zm-43.9634 0h4.9114V8.98447h.0599l7.0079 12.57813h5.3902V1.43757h-4.9111V13.836h-.0599L89.4242 1.43757h-5.3906V21.5626zm-26.3542 0H74.031v-4.4922H62.9502v-3.8333h9.8828V9.16415h-9.8828V5.63028h10.7813V1.43757H57.6794V21.5626zM36.596 5.63028h3.5339c1.6172 0 2.8151.77866 2.8151 2.63543 0 1.85679-1.1979 2.51559-2.8151 2.51559H36.596V5.63028zM31.3252 21.5626h5.2708v-6.7083h4.3125c4.4323 0 7.3073-1.9167 7.3073-6.94798 0-4.79168-3.5338-6.46875-7.3073-6.46875h-9.5833V21.5626z" fill="#58595B"/><path d="M11.6198 23v-4.9714c3.1745-.4192 4.4323-3.4739 4.4323-6.5286 0-3.05471-1.2578-6.10938-4.4323-6.52865V0c6.5287.359375 10.1823 5.33071 10.1823 11.5 0 6.1693-3.7135 11.1406-10.1823 11.5zM5.75 11.5c0-3.05471 1.25782-6.10938 4.4323-6.52865V0C3.65365.359375 0 5.33071 0 11.5 0 17.6693 3.65365 22.6406 10.1823 23v-4.9714C7.00782 17.6094 5.75 14.5547 5.75 11.5z" fill="#EF4123"/></svg>
