<svg width="805" height="1024" viewBox="0 0 805 1024" fill="none" xmlns="http://www.w3.org/2000/svg">
<path d="M219.429 749.714V786.285C219.429 795.999 210.858 804.571 201.143 804.571H164.572C154.858 804.571 146.286 796 146.286 786.285V749.714C146.286 740 154.857 731.428 164.572 731.428H201.143C210.857 731.428 219.429 739.999 219.429 749.714V749.714ZM219.429 603.429V640C219.429 649.714 210.858 658.286 201.143 658.286H164.572C154.858 658.286 146.286 649.715 146.286 640V603.429C146.286 593.715 154.857 585.143 164.572 585.143H201.143C210.857 585.143 219.429 593.714 219.429 603.429V603.429ZM365.714 603.429V640C365.714 649.714 357.143 658.286 347.428 658.286H310.857C301.143 658.286 292.571 649.715 292.571 640V603.429C292.571 593.715 301.142 585.143 310.857 585.143H347.428C357.142 585.143 365.714 593.714 365.714 603.429V603.429ZM219.429 457.143V493.714C219.429 503.428 210.858 512 201.143 512H164.572C154.858 512 146.286 503.429 146.286 493.714V457.143C146.286 447.429 154.857 438.857 164.572 438.857H201.143C210.857 438.857 219.429 447.428 219.429 457.143V457.143ZM658.286 749.714V786.285C658.286 795.999 649.715 804.571 640 804.571H603.429C593.715 804.571 585.143 796 585.143 786.285V749.714C585.143 740 593.714 731.428 603.429 731.428H640C649.714 731.428 658.286 739.999 658.286 749.714V749.714ZM512 603.429V640C512 649.714 503.429 658.286 493.714 658.286H457.143C447.429 658.286 438.857 649.715 438.857 640V603.429C438.857 593.715 447.428 585.143 457.143 585.143H493.714C503.428 585.143 512 593.714 512 603.429V603.429ZM365.714 457.143V493.714C365.714 503.428 357.143 512 347.428 512H310.857C301.143 512 292.571 503.429 292.571 493.714V457.143C292.571 447.429 301.142 438.857 310.857 438.857H347.428C357.142 438.857 365.714 447.428 365.714 457.143V457.143ZM219.429 310.857V347.428C219.429 357.142 210.858 365.714 201.143 365.714H164.572C154.858 365.714 146.286 357.143 146.286 347.428V310.857C146.286 301.143 154.857 292.571 164.572 292.571H201.143C210.857 292.571 219.429 301.142 219.429 310.857V310.857ZM658.286 603.429V640C658.286 649.714 649.715 658.286 640 658.286H603.429C593.715 658.286 585.143 649.715 585.143 640V603.429C585.143 593.715 593.714 585.143 603.429 585.143H640C649.714 585.143 658.286 593.714 658.286 603.429V603.429ZM512 457.143V493.714C512 503.428 503.429 512 493.714 512H457.143C447.429 512 438.857 503.429 438.857 493.714V457.143C438.857 447.429 447.428 438.857 457.143 438.857H493.714C503.428 438.857 512 447.428 512 457.143V457.143ZM365.714 310.857V347.428C365.714 357.142 357.143 365.714 347.428 365.714H310.857C301.143 365.714 292.571 357.143 292.571 347.428V310.857C292.571 301.143 301.142 292.571 310.857 292.571H347.428C357.142 292.571 365.714 301.142 365.714 310.857V310.857ZM219.429 164.571V201.142C219.429 210.856 210.858 219.428 201.143 219.428H164.572C154.858 219.428 146.286 210.857 146.286 201.142V164.571C146.286 154.857 154.857 146.285 164.572 146.285H201.143C210.857 146.285 219.429 154.856 219.429 164.571ZM658.286 457.143V493.714C658.286 503.428 649.715 512 640 512H603.429C593.715 512 585.143 503.429 585.143 493.714V457.143C585.143 447.429 593.714 438.857 603.429 438.857H640C649.714 438.857 658.286 447.428 658.286 457.143V457.143ZM512 310.857V347.428C512 357.142 503.429 365.714 493.714 365.714H457.143C447.429 365.714 438.857 357.143 438.857 347.428V310.857C438.857 301.143 447.428 292.571 457.143 292.571H493.714C503.428 292.571 512 301.142 512 310.857V310.857ZM365.714 164.571V201.142C365.714 210.856 357.143 219.428 347.428 219.428H310.857C301.143 219.428 292.571 210.857 292.571 201.142V164.571C292.571 154.857 301.142 146.285 310.857 146.285H347.428C357.142 146.285 365.714 154.856 365.714 164.571ZM658.286 310.857V347.428C658.286 357.142 649.715 365.714 640 365.714H603.429C593.715 365.714 585.143 357.143 585.143 347.428V310.857C585.143 301.143 593.714 292.571 603.429 292.571H640C649.714 292.571 658.286 301.142 658.286 310.857V310.857ZM512 164.571V201.142C512 210.856 503.429 219.428 493.714 219.428H457.143C447.429 219.428 438.857 210.857 438.857 201.142V164.571C438.857 154.857 447.428 146.285 457.143 146.285H493.714C503.428 146.285 512 154.856 512 164.571ZM658.286 164.571V201.142C658.286 210.856 649.715 219.428 640 219.428H603.429C593.715 219.428 585.143 210.857 585.143 201.142V164.571C585.143 154.857 593.714 146.285 603.429 146.285H640C649.714 146.285 658.286 154.856 658.286 164.571V164.571ZM512 950.857H731.429V73.143H73.143V950.857H292.572V822.857C292.572 813.143 301.143 804.571 310.858 804.571H493.715C503.429 804.571 512.001 813.142 512.001 822.857V950.857H512ZM804.571 36.571V987.428C804.571 1007.43 788 1024 768 1024H36.571C16.571 1024 0 1007.43 0 987.428V36.571C0 16.571 16.571 0 36.571 0H768C788 0 804.571 16.571 804.571 36.571V36.571Z" fill="#58595B"/>
</svg>
