<svg xmlns="http://www.w3.org/2000/svg" width="16" height="16" viewBox="0 0 16 16"><path d="M0,0H16V16H0Z" fill="none"/><path d="M7.994,2A6,6,0,1,0,14,8,6,6,0,0,0,7.994,2Zm4.158,3.6h-1.77a9.389,9.389,0,0,0-.828-2.136A4.818,4.818,0,0,1,12.152,5.6ZM8,3.224A8.452,8.452,0,0,1,9.146,5.6H6.854A8.452,8.452,0,0,1,8,3.224ZM3.356,9.2a4.693,4.693,0,0,1,0-2.4H5.384A9.909,9.909,0,0,0,5.3,8a9.909,9.909,0,0,0,.084,1.2Zm.492,1.2h1.77a9.389,9.389,0,0,0,.828,2.136,4.792,4.792,0,0,1-2.6-2.136Zm1.77-4.8H3.848a4.792,4.792,0,0,1,2.6-2.136A9.389,9.389,0,0,0,5.618,5.6ZM8,12.776A8.452,8.452,0,0,1,6.854,10.4H9.146A8.452,8.452,0,0,1,8,12.776ZM9.4,9.2H6.6A8.828,8.828,0,0,1,6.5,8a8.751,8.751,0,0,1,.1-1.2H9.4A8.751,8.751,0,0,1,9.5,8,8.828,8.828,0,0,1,9.4,9.2Zm.15,3.336a9.389,9.389,0,0,0,.828-2.136h1.77A4.818,4.818,0,0,1,9.554,12.536ZM10.616,9.2A9.909,9.909,0,0,0,10.7,8a9.909,9.909,0,0,0-.084-1.2h2.028a4.693,4.693,0,0,1,0,2.4Z" fill="#008182"/></svg>