<?xml version="1.0" encoding="UTF-8" standalone="no"?>
<svg
   xmlns:dc="http://purl.org/dc/elements/1.1/"
   xmlns:cc="http://creativecommons.org/ns#"
   xmlns:rdf="http://www.w3.org/1999/02/22-rdf-syntax-ns#"
   xmlns:svg="http://www.w3.org/2000/svg"
   xmlns="http://www.w3.org/2000/svg"
   xmlns:sodipodi="http://sodipodi.sourceforge.net/DTD/sodipodi-0.dtd"
   xmlns:inkscape="http://www.inkscape.org/namespaces/inkscape"
   id="Layer_1"
   data-name="Layer 1"
   viewBox="0 0 123.6101 123.6101"
   version="1.1"
   sodipodi:docname="thumbsup.svg"
   width="123.6101"
   height="123.6101"
   inkscape:version="0.92.0 r15299">
  <metadata
     id="metadata3714">
    <rdf:RDF>
      <cc:Work
         rdf:about="">
        <dc:format>image/svg+xml</dc:format>
        <dc:type
           rdf:resource="http://purl.org/dc/dcmitype/StillImage" />
        <dc:title>Ikoner</dc:title>
      </cc:Work>
    </rdf:RDF>
  </metadata>
  <sodipodi:namedview
     pagecolor="#ffffff"
     bordercolor="#666666"
     borderopacity="1"
     objecttolerance="10"
     gridtolerance="10"
     guidetolerance="10"
     inkscape:pageopacity="0"
     inkscape:pageshadow="2"
     inkscape:window-width="1305"
     inkscape:window-height="1003"
     id="namedview3712"
     showgrid="false"
     fit-margin-top="0"
     fit-margin-left="0"
     fit-margin-right="0"
     fit-margin-bottom="0"
     inkscape:zoom="1.6968651"
     inkscape:cx="-35.295983"
     inkscape:cy="58.470102"
     inkscape:window-x="0"
     inkscape:window-y="0"
     inkscape:window-maximized="0"
     inkscape:current-layer="Layer_1" />
  <defs
     id="defs3697">
    <style
       id="style3695">.cls-1{fill:none;stroke:#018c8c;stroke-miterlimit:10;stroke-width:5px;}</style>
  </defs>
  <title
     id="title3699">Ikoner</title>
  <path
     class="cls-1"
     d="m 95.787692,76.509995 a 10,10 0 0 0 -5.06,-8.66 10,10 0 0 0 -4.9,-18.62 h -3.27 v -36.000002 0 a 10.73,10.73 0 0 0 -21.46,0 v 20.750002 a 8.13,8.13 0 0 1 -4.89,7.45 l -18.15,7.91 a 1.56,1.56 0 0 0 -0.39,0.26 10,10 0 0 0 -5.999999,14.51 4.1,4.1 0 0 1 0.52,2.78 v 0.2 a 3.85,3.85 0 0 1 -1.17,2.09 10,10 0 0 0 -1.24,13.29 8.41,8.41 0 0 1 1.71,5.13 8.27,8.27 0 0 1 -0.51,2.77 9.67,9.67 0 0 0 -0.62,3.46 10,10 0 0 0 3.25,7.360005 4.51,4.51 0 0 1 1.54,3.25 7.33,7.33 0 0 1 -0.57,2.88 10,10 0 0 0 9.199999,13.79 h 38.59 a 9.95,9.95 0 0 0 6,-17.92 9.93,9.93 0 0 0 1.94,-17.770005 10,10 0 0 0 5.48,-8.91 z"
     id="path3701"
     inkscape:connector-curvature="0"
     style="fill:none;stroke:#018c8c;stroke-width:5px;stroke-miterlimit:10" />
  <line
     class="cls-1"
     x1="90.727692"
     y1="67.849998"
     x2="54.917694"
     y2="67.849998"
     id="line3703"
     style="fill:none;stroke:#018c8c;stroke-width:5px;stroke-miterlimit:10" />
  <line
     class="cls-1"
     x1="90.267693"
     y1="85.409996"
     x2="54.917694"
     y2="85.159996"
     id="line3705"
     style="fill:none;stroke:#018c8c;stroke-width:5px;stroke-miterlimit:10" />
  <line
     class="cls-1"
     x1="88.32769"
     y1="103.18"
     x2="54.917694"
     y2="102.48"
     id="line3707"
     style="fill:none;stroke:#018c8c;stroke-width:5px;stroke-miterlimit:10" />
  <line
     class="cls-1"
     x1="82.557693"
     y1="49.23"
     x2="36.767693"
     y2="49.819996"
     id="line3709"
     style="fill:none;stroke:#018c8c;stroke-width:5px;stroke-miterlimit:10" />
</svg>
