<svg id="ikoner" xmlns="http://www.w3.org/2000/svg" viewBox="0 0 595.28 595.28"><defs><style>.cls-1{fill:none;stroke:#ffffff;stroke-miterlimit:10;stroke-width:9px;}</style></defs><title>Anlæg</title><line class="cls-1" x1="14.73" y1="579.21" x2="489.69" y2="576.73"/><path class="cls-1" d="M398.79,92.49c-1.68-16.75-2.29-48.84-2.57-57.84-.24-7.76-1.36-24.54,14.19-28.12,15.3-3.51,24.19,11.15,30.1,20.34s37.56,54.57,38.07,72.45,3.11,42.18,5.64,73.22,18.23,172.68,20.08,184.74"/><path class="cls-1" d="M478.48,354.15c-5.31-12.65-39.48-139.85-51-170.64-4-10.88-9.51-27.44-13.61-39.91"/><path class="cls-1" d="M465.44,356.6c3.68-5,13-4.52,15.83,0,3.05,4.81,8.62,6,13.78,5.18l11.5-1.77a12.62,12.62,0,0,1,12.32,6.22c3.3,5.59,25.38,27.77,38.43,44s24.19,52.29-49.07,63.56c-25.78,4-74.65,8.23-77.81,8.72s-9-5.92-.71-7.2,17.47-15.64,23.51-23.87,23.92-41.61,17.94-59.37S457,368,465.44,356.6Z"/><path class="cls-1" d="M284.3,334.45c-4.16-30.38,23.49-85.71,32.11-103.17s88.83-147.17,97.88-166c13.57-28.19,45.06-18.5,31.75,12.27s-88.5,174.8-93,196.2c-1.87,9-3.66,36.46-4.89,63.29"/><path class="cls-1" d="M402.25,577.19c17.14-.09,31-15.41,30.86-34.21S419,509,401.89,509.09l-293.45,1.53c-17,.52-27.9,15.39-27.81,34.19s11,34,28.17,33.91Z"/><path class="cls-1" d="M33.62,420.22C35,413,41.55,404.71,59.86,404.61c20.28-.1,152.16.48,163.57.42,0,0,1.76-31.38,3-41.54s3.12-24.9,18.8-25.53c17.79-.7,92.51-2.64,92.51-2.64,17.76-.09,20.27,10.75,21.77,23.69,1.14,9.74,8.54,80.16,8.61,94.11s1.58,31-40.27,31.25-257.4-1.2-271.36-1.12S28.55,477,29.72,461.82C30.61,450.3,33.62,420.22,33.62,420.22Z"/><path class="cls-1" d="M269.74,365A13.8,13.8,0,0,0,256,377.79c-.59,7.72-1.08,22.7-1,29.37s1.58,8.77,7.59,10.55,24.69,7.6,30.72,14.73c4,4.71,7.7,8.1,13.7,8.07l22-.11c4.2,0,6.58-3.67,6.53-12.15s-2.63-44.2-3.26-50.86-5.47-13.9-14.47-13.85S269.74,365,269.74,365Z"/><line class="cls-1" x1="351.29" y1="482.97" x2="351.43" y2="509.35"/><line class="cls-1" x1="180.91" y1="510.24" x2="180.77" y2="483.86"/></svg>
