<svg id="ikoner" xmlns="http://www.w3.org/2000/svg" viewBox="0 0 595.28 595.28"><defs><style>.cls-1{fill:none;stroke:#ffffff;stroke-miterlimit:10;stroke-width:9px;}</style></defs><title>Billedsprog</title><path class="cls-1" d="M195,375.74c0,30.66-39.41,55.52-88,55.52S19,406.4,19,375.74l85.65-205Z"/><line class="cls-1" x1="18.29" y1="379.56" x2="196.55" y2="379.56"/><path class="cls-1" d="M576.53,375.57c0,30.67-39.4,55.53-88,55.53s-88-24.86-88-55.53l85.65-205Z"/><line class="cls-1" x1="399.24" y1="379.56" x2="577.5" y2="379.56"/><path class="cls-1" d="M282.6,471V28.33a9.43,9.43,0,0,1,9.4-9.4h10.13a9.43,9.43,0,0,1,9.4,9.4V471"/><line class="cls-1" x1="167.25" y1="470.65" x2="424.39" y2="470.65"/><path class="cls-1" d="M313.19,82.79A84.83,84.83,0,0,1,343.93,77c26.54,0,80.46,64.7,128.57,64.7,20.74,0,49.77-19.91,50.6-24.06"/><path class="cls-1" d="M281.77,82.79A84.83,84.83,0,0,0,251,77c-26.54,0-80.46,64.7-128.57,64.7-20.74,0-49.77-19.91-50.6-24.06"/></svg>
