<svg id="ikoner" xmlns="http://www.w3.org/2000/svg" viewBox="0 0 595.28 595.28"><defs><style>.cls-1{fill:none;stroke:#ffffff;stroke-miterlimit:10;stroke-width:9px;}</style></defs><title>Biogas</title><path class="cls-1" d="M515.71,436.93V176.35c-3-16.52-40.14-29.58-85.3-29.58s-82,13.06-85,29.58l-.16,77.58"/><path class="cls-1" d="M168.36,322.23c-45.72,0-75.38,42.93-75.38,76.71l-.19,10.46v27.53"/><line class="cls-1" x1="146.44" y1="436.93" x2="19.53" y2="436.93"/><line class="cls-1" x1="578.05" y1="436.93" x2="411.18" y2="436.93"/><path class="cls-1" d="M360,400.05c-.12.66,3.38,47.9,3.79,49.88s2,2.89,3.55,3.82c2.67,1.62,10.59,2.26,13.22.22,4.66-3.62,1.25-9.21-.52-13.59-4.6-11.4-4-21.72-.49-33.41,1.87-6.22,4.72-20.17,6.84-26.31.12.73,8.89,68.51,15.43,70.86,3.88,1.39,10.55,1.54,14.22-.38.4-.21.34-.5.07-.75.73-4.12-1.51-7.81-3.62-11.27-3.4-5.6-5.36-10.66-5.2-17.44.32-13.3,2.95-26.45,3.23-39.78.74-1.57,21.6-39.49,22.5-42.31.31,0-3.55-13.44-1.63-20.85,1.34-5.18,3.5-10.77,7.53-14.49,4.88.6,34-3.21,35.71-3.67l.07,0c1.87.5,4,.43,5.29-1.18,1.15-1.37,2-5,2.13-5.14,3.65-.63,5.69-5.6,6.13-8.82s-.34-6.27-3.36-7.32c-4.79-5.28-21.95-24.76-26.09-28.73h0c-.06-.07-3.4-2.87-5.09-4.09-1-.73-3.27-2.45-3.36-2.54,1.08-.67,2.06-2.49,2.62-3.26,1.72-2.38,3.4-4.8,4.91-7.32,1.21-2,3.58-8.1,1.45-10-3.71-3.33-6.38,4.78-8.11,6.57-2.86,3-5.34,7.15-9.47,7.18-.4-.1-3.35-.73-4.23-.83.66-4.54,8.6-13.58,2.52-14.59-2.42-.4-5.54,2.58-6.72,4.36-1.42,2.14-2.3,4.54-3.63,6.72-.64,1.05-14.18,17.66-17.05,20.65C410,255,395.82,266.5,390.9,267.73a12.93,12.93,0,0,1-4.11.38c-4.65-2-23.83,1-28.17,1.95-3.49.79-41.26,5.3-43.77,5.74-5.89,1-54.14-5.95-54.26-5.91-2.92-.41-43.22-1.29-43.37-1.27-10.26,1.53-14,17-14.17,26.1-.15,0,1.6,27.21,1.82,30.75"/><path class="cls-1" d="M349.58,372.23c-1.46-3.88-8.29-4.66-10.42-4.3h0c-.31-.54-.6-.9-.7-1.1-20-41.49-88.82-37.58-127.42-26.23-17.82,5.24-35.59,15.62-41.17,19.23-7.85-8.32-14.13-9.32-14.13-9.32-4.69,4.87-4,13.18-2.69,19-15.47,9.86-8.79,26.34-17.36,26.95a32.43,32.43,0,0,1-6.48-.41,1.93,1.93,0,0,0-2,1.88c.1,4,3.65,9.23,7.41,10.95,5.65,2.59,3.62,2.9,3.62,2.9,7.4,6.38,23.9,4.25,23.9,4.25,19.34,3.91,37.24.38,45.86-.76,7,18.72,0,29.94-.2,32.48,0,.43,1.16.93,3,1.34,0,0,13.33.94,15-1.23,4.88-6.53,5-19.29,4-30,29.8,7.38,60,1.5,68.1-1,.15.81.31,1.65.5,2.5,1.81,8.35-6,22.48-10,26.13-1.49,1.37-.4,2.77,1.41,3.73l1.79.62c4.18,1.26,10.54,1.87,12.73,1,4-1.61,9.73-19,15.74-24.9a18.16,18.16,0,0,0,3.64-4.87,7.77,7.77,0,0,0,.27-6.33,8.39,8.39,0,0,1-.47-3.84,12.81,12.81,0,0,1,5.24-9.15,29.07,29.07,0,0,0,10.44-14.54l.09-.28c2.36,0,7.14-2,7.48-3a12.11,12.11,0,0,1,.56-6.57s-1.25,5.59.92,6.39c4.61,1.69,5.79-6.56,5.79-6.56C352.21,378,351.52,377.36,349.58,372.23Z"/></svg>
