<svg id="ikoner" xmlns="http://www.w3.org/2000/svg" viewBox="0 0 595.28 595.28"><defs><style>.cls-1{fill:none;stroke:#ffffff;stroke-miterlimit:10;stroke-width:9px;}</style></defs><title>El</title><line class="cls-1" x1="192.26" y1="576.45" x2="393.84" y2="576.45"/><path class="cls-1" d="M275.82,574.72V29.12A7.15,7.15,0,0,1,283,22h19.44a7.15,7.15,0,0,1,7.15,7.15v545.6"/><line class="cls-1" x1="313.04" y1="101.13" x2="571.45" y2="31.91"/><line class="cls-1" x1="313.04" y1="265.3" x2="571.45" y2="196.09"/><line class="cls-1" x1="276.13" y1="100.02" x2="21.24" y2="31.91"/><line class="cls-1" x1="274.17" y1="263.99" x2="21.24" y2="196.09"/><line class="cls-1" x1="123.34" y1="62.17" x2="123.34" y2="154.62"/><line class="cls-1" x1="452.34" y1="62.17" x2="452.34" y2="154.62"/><line class="cls-1" x1="532.05" y1="207.5" x2="532.05" y2="310.47"/><line class="cls-1" x1="401.19" y1="244.38" x2="401.19" y2="310.47"/><line class="cls-1" x1="63.85" y1="207.5" x2="63.85" y2="310.47"/><line class="cls-1" x1="194.72" y1="244.38" x2="194.72" y2="310.47"/></svg>
