<svg id="ikoner" xmlns="http://www.w3.org/2000/svg" viewBox="0 0 595.28 595.28"><defs><style>.cls-1{fill:none;stroke:#ffffff;stroke-miterlimit:10;stroke-width:9px;}</style></defs><title>Stik</title><path class="cls-1" d="M202.22,202.23v-159a19.35,19.35,0,0,1,19.35-19.35h0a19.35,19.35,0,0,1,19.36,19.35v159"/><path class="cls-1" d="M418.35,202.23v-159A19.35,19.35,0,0,0,399,23.83h0a19.35,19.35,0,0,0-19.35,19.35v159"/><line class="cls-1" x1="475.11" y1="242.04" x2="144.48" y2="242.04"/><line class="cls-1" x1="310.28" y1="448.56" x2="310.28" y2="575.34"/><path class="cls-1" d="M148.51,195.08v63c0,104,72.43,188.31,161.77,188.31s161.78-84.31,161.78-188.31v-59"/><line class="cls-1" x1="79.73" y1="198.64" x2="540.84" y2="198.64"/></svg>
