<svg id="ikoner" xmlns="http://www.w3.org/2000/svg" viewBox="0 0 595.28 595.28"><defs><style>.cls-1{fill:none;stroke:#ffffff;stroke-miterlimit:10;stroke-width:9px;}.cls-2{fill:#008b8b;}</style></defs><title>Elpaere</title><line class="cls-1" x1="238.39" y1="517.99" x2="375.73" y2="517.99"/><line class="cls-1" x1="238.39" y1="544.07" x2="375.73" y2="544.07"/><line class="cls-1" x1="240.03" y1="570.15" x2="377.37" y2="570.15"/><path class="cls-2" d="M306.3,31.07A201.33,201.33,0,0,1,469.43,350.41,201.9,201.9,0,0,1,372,422.73l-6.06,2.1v65.52H246.63V424.83l-6.06-2.1A201.32,201.32,0,0,1,306.3,31.07m0-9C190.13,22.07,96,116.25,96,232.42c0,92.12,59.24,170.35,141.68,198.82v68.11H375V431.24c82.44-28.47,141.68-106.7,141.68-198.82,0-116.17-94.17-210.35-210.34-210.35Z"/><polyline class="cls-1" points="282.7 486.26 282.7 283.01 221.15 229.06"/><polyline class="cls-1" points="326.16 486.26 326.16 283.01 387.72 229.06"/></svg>
