<svg id="ikoner" xmlns="http://www.w3.org/2000/svg" viewBox="0 0 595.28 595.28"><defs><style>.cls-1{fill:none;stroke:#ffffff;stroke-miterlimit:10;stroke-width:9px;}</style></defs><title>Fjernvarme</title><line class="cls-1" x1="31.66" y1="547.23" x2="572.77" y2="547.23"/><polyline class="cls-1" points="122.99 226.05 122.99 547.23 460.39 547.23 460.39 218.79"/><path class="cls-1" d="M123,540.93A189.58,189.58,0,0,1,140.26,527c15.24-10.71,26.78-17.15,44-17.15H405.69a39.89,39.89,0,0,0,26.11-9.42c6.89-5.88,11.54-19,11.52-28.73s-4.63-22.85-11.53-28.74a39.87,39.87,0,0,0-26.1-9.39l-221.41,0c-17.24,0-32.73-6.07-43.71-15.56s-17.42-17.71-17.43-31.47H123"/><path class="cls-1" d="M123,434.58c1.2,1.16,2.42,2.32,3.68,3.4,15,12.9,35.34,20.7,57.61,20.7H405.69a18.8,18.8,0,0,1,12.21,4.26,11,11,0,0,1,0,17.48,18.81,18.81,0,0,1-12.21,4.28H184.28c-22.27,0-42.65,7.79-57.61,20.68-1.27,1.09-2.48,2.24-3.68,3.41"/><path class="cls-1" d="M460.39,402.34c-1.2-1.16-2.41-2.32-3.68-3.4-15-12.91-35.34-20.7-57.61-20.7H177.69A18.8,18.8,0,0,1,165.48,374a11,11,0,0,1,0-17.48,18.83,18.83,0,0,1,12.21-4.28H399.1c22.27,0,42.65-7.79,57.61-20.69,1.27-1.08,2.48-2.23,3.68-3.4"/><path class="cls-1" d="M460.39,289.47c0-8.74-8.22,14.12-17.27,20.47-15.23,10.71-26.78,17.15-44,17.15H177.69a39.84,39.84,0,0,0-26.11,9.42c-6.89,5.87-11.54,19-11.52,28.73s4.63,22.85,11.53,28.74a39.87,39.87,0,0,0,26.1,9.39l221.41,0c17.24,0,32.73,6.07,43.71,15.56s17.42,17.71,17.43,31.47h.15"/><polyline class="cls-1" points="84.96 263.63 293.95 54.65 498.42 259.12"/></svg>
