<svg id="ikoner" xmlns="http://www.w3.org/2000/svg" viewBox="0 0 595.28 595.28"><defs><style>.cls-1{fill:none;stroke:#ffffff;stroke-miterlimit:10;stroke-width:9px;}</style></defs><title>Forbruger</title><polyline class="cls-1" points="580.07 578.95 67.42 578.95 67.42 183.86"/><circle class="cls-1" cx="317.23" cy="121.42" r="64.66"/><path class="cls-1" d="M269.47,204.71h-9.26a33.93,33.93,0,0,0-33.74,37.55l22.71,146.13a25.69,25.69,0,0,0,25.39,21.74h3V578.21"/><path class="cls-1" d="M366.71,204.71H376a33.93,33.93,0,0,1,33.74,37.55L387,388.39a25.7,25.7,0,0,1-25.39,21.74h-3V578.21"/><circle class="cls-1" cx="476.2" cy="117.37" r="64.66"/><path class="cls-1" d="M382.68,397.46a25.62,25.62,0,0,0,22.51,12.67h31.36V578.21"/><path class="cls-1" d="M452.76,204.71h-9.27c-16.88,0-28.53,12-33.59,27.92"/><path class="cls-1" d="M493.27,204.71h9.26c20.17,0,29.52,17.19,33.74,37.55,0,0,30,138.61,30,146.13s-8.48,21.74-25.39,21.74H509.48V578.21"/><polyline class="cls-1" points="265.67 52.56 232.05 18.94 151.85 99.13 151.85 57.7 115.81 57.7 115.81 131.81 21.85 229.13"/></svg>
