<svg id="ikoner" xmlns="http://www.w3.org/2000/svg" viewBox="0 0 595.28 595.28"><defs><style>.cls-1{fill:none;stroke:#ffffff;stroke-miterlimit:10;stroke-width:9px;}</style></defs><title>Gas-ror</title><path class="cls-1" d="M437.61,401.09a86.46,86.46,0,0,1-86.2,86.2H244.68c-47.38,0-86.2-38.82-86.2-86.2V324.51c0-47.38,38.82-86.2,86.2-86.2h26.56V220.52h17.68v-52H259.38V150.79H170.59c-8,0-14.44-5.88-14.44-13a12.36,12.36,0,0,1,4.2-9.22,15.45,15.45,0,0,1,10.24-3.8H275.8a23.59,23.59,0,0,1,3.49-4,28.66,28.66,0,0,1,37.51,0,23.59,23.59,0,0,1,3.49,4H425.55c8,0,14.4,5.77,14.4,13s-6.44,13-14.4,13H336.76v17.78H307.17v52h17.68v17.79h26.56a86.46,86.46,0,0,1,86.2,86.2Z"/><line class="cls-1" x1="568.49" y1="477.67" x2="568.49" y2="245.83"/><rect class="cls-1" x="438.32" y="271.16" width="58.75" height="181.96" transform="translate(935.38 724.27) rotate(180)"/><rect class="cls-1" x="497.23" y="311.8" width="71.13" height="100.67" transform="translate(1065.59 724.27) rotate(180)"/><line class="cls-1" x1="28.29" y1="245.83" x2="28.29" y2="477.67"/><rect class="cls-1" x="99.71" y="270.38" width="58.75" height="181.96"/><rect class="cls-1" x="28.41" y="311.03" width="71.13" height="100.67"/></svg>
