<svg id="ikoner" xmlns="http://www.w3.org/2000/svg" viewBox="0 0 595.28 595.28"><defs><style>.cls-1{fill:none;stroke:#ffffff;stroke-miterlimit:10;stroke-width:9px;}</style></defs><title>Gas</title><path class="cls-1" d="M161.44,333.79c.88-22.44,5.86-46.42,16.75-75.08,0,0,4.55,9.43,14.69,20.64,2.42,2.67,7.09,1.21,7.27-2.29,2.16-42.31,43.09-215.58,176.75-239.53,0,0-26.88,90.58,9.28,142.11,7.43,10.59,18.15-23.94,18.15-23.94s21,49.4,27.55,61.86c18.86,36.1,37.69,75.72,39.14,117.64h.08c0,.41,0,.82,0,1.23a142.26,142.26,0,0,1-1.82,26.87c-11.44,86.59-74.93,152.85-152.58,152.85-68.94,0-127.37-52.26-147.72-124.6a156.35,156.35,0,0,1-7.67-53.48Z"/><line class="cls-1" x1="516.12" y1="567.5" x2="127.57" y2="567.5"/><rect class="cls-1" x="197.85" y="530.93" width="236.64" height="36.2" transform="translate(632.34 1098.06) rotate(180)"/></svg>
