<svg id="ikoner" xmlns="http://www.w3.org/2000/svg" viewBox="0 0 595.28 595.28"><defs><style>.cls-1{fill:none;stroke:#ffffff;stroke-miterlimit:10;stroke-width:9px;}</style></defs><title>Kraftvaerk</title><path class="cls-1" d="M494.45,566.9v-86a8.91,8.91,0,0,0-8.91-8.91h-42V373.36A11.55,11.55,0,0,0,432,361.82H394L388.61,179a8.29,8.29,0,0,0-8.29-8.28H356.65a8.28,8.28,0,0,0-8.28,8.28L343,361.82H251.77a9.24,9.24,0,0,0-9.24,9.24V471.94h-31l-5.34-232.48a10,10,0,0,0-10-10H176a10,10,0,0,0-10,10l-5.34,232.48H91.73a13.31,13.31,0,0,0-13.31,13.31V566.9"/><rect class="cls-1" x="273.75" y="405.9" width="45.19" height="19.75" rx="2.62" ry="2.62"/><rect class="cls-1" x="273.75" y="443.07" width="45.19" height="19.75" rx="2.62" ry="2.62"/><rect class="cls-1" x="272.74" y="480.89" width="42.97" height="18.78" rx="2.49" ry="2.49"/><path class="cls-1" d="M374.49,15.79a35.5,35.5,0,0,0-35,29.83,35.44,35.44,0,0,0-16.09,10.54A72.33,72.33,0,0,0,293.79,50c-19.28,0-36.5,7.28-48,18.71-5.57-2.14-7.37-4.17-19.73-4.17-41.67,0-61.42,21.77-61.42,50.56,0,13.94,8,26.57,20.88,35.92a16,16,0,0,0-3.62,24,11.94,11.94,0,1,0,17.22,4.83,16.08,16.08,0,0,0,11.13-15.26,13.92,13.92,0,0,0-.18-1.72c9.21,2.76,18.5,1.19,29.17.88,7.9-.23,24.29-7,28.75-14.22a71.66,71.66,0,0,0,17.91,4.22s13.34,1.51,22.67-1.07a65.33,65.33,0,0,0,32.22-16.49A12.24,12.24,0,1,0,351,122.83a46.19,46.19,0,0,0,3.39-8.06,35.51,35.51,0,0,0,30.72-29.54,35.53,35.53,0,0,0-10.62-69.44Z"/><line class="cls-1" x1="20.96" y1="567.66" x2="544.29" y2="567.66"/></svg>
