<svg id="ikoner" xmlns="http://www.w3.org/2000/svg" viewBox="0 0 595.28 595.28"><defs><style>.cls-1{fill:none;stroke:#ffffff;stroke-miterlimit:10;stroke-width:9px;}</style></defs><title>Link</title><path class="cls-1" d="M230.71,196.17l-127,123.51c-86,88.21-86,169.09-36.34,218.67a127.37,127.37,0,0,0,180,.06L372,413.74a127.26,127.26,0,0,0,0-180c-4.56-4.59-33.87-33.86-39-37.58"/><path class="cls-1" d="M282.08,250.85c5.84,2.53,33.31,29.76,38.17,34.57a54.21,54.21,0,0,1,0,76.58c-137.18,137.2-82.72,82.74-124.63,124.63A54.13,54.13,0,0,1,119,410.1l91.74-91"/><path class="cls-1" d="M402.12,365.76,545,240.75c49.68-49.54,49.64-130.39,0-180a127.38,127.38,0,0,0-180-.07L240.33,185.39a127.25,127.25,0,0,0,0,180c4.59,4.56,32.08,35.62,37.18,39.36"/><path class="cls-1" d="M327.88,352.31c-5.83-2.52-31-33.81-35.83-38.63a54.16,54.16,0,0,1,0-76.57L416.67,112.48A54.14,54.14,0,0,1,493.26,189l-93.91,85.55"/></svg>
