<svg id="ikoner" xmlns="http://www.w3.org/2000/svg" viewBox="0 0 595.28 595.28"><defs><style>.cls-1{fill:none;stroke:#ffffff;stroke-miterlimit:10;stroke-width:9px;}</style></defs><title>Maalerstation</title><path class="cls-1" d="M448.43,338.4c0,49.75-40.7,90.51-90.5,90.51h-112c-49.74,0-90.5-40.76-90.5-90.51V258c0-49.74,40.76-90.5,90.5-90.5H357.93c49.8,0,90.5,40.76,90.5,90.5Z"/><line class="cls-1" x1="22.61" y1="178.94" x2="22.61" y2="415.09"/><circle class="cls-1" cx="301.87" cy="298.21" r="99.24"/><path class="cls-1" d="M327.64,329.26c-10.37,14.37-25.88,16.88-40.25,6.51s-16.89-25.88-6.51-40.26S350,249,350,249,338,314.88,327.64,329.26Z"/><rect class="cls-1" x="95.36" y="203.95" width="59.84" height="185.34"/><rect class="cls-1" x="22.74" y="245.35" width="72.45" height="102.53"/><line class="cls-1" x1="580.86" y1="415.09" x2="580.86" y2="178.94"/><rect class="cls-1" x="448.27" y="204.74" width="59.84" height="185.34" transform="translate(956.38 594.81) rotate(180)"/><rect class="cls-1" x="508.28" y="246.14" width="72.45" height="102.53" transform="translate(1089.01 594.81) rotate(180)"/></svg>
