<svg id="ikoner" xmlns="http://www.w3.org/2000/svg" viewBox="0 0 595.28 595.28"><defs><style>.cls-1{fill:none;stroke:#ffffff;stroke-miterlimit:10;stroke-width:9px;}</style></defs><title>Mennesker</title><line class="cls-1" x1="68.74" y1="585.34" x2="271.86" y2="585.34"/><circle class="cls-1" cx="170.3" cy="91.26" r="69.94"/><path class="cls-1" d="M118.65,181.34h-10A36.69,36.69,0,0,0,72.14,222L96.7,380a27.8,27.8,0,0,0,27.46,23.53h3.25v181.8"/><path class="cls-1" d="M223.82,181.34h10A36.69,36.69,0,0,1,270.33,222L245.77,380a27.8,27.8,0,0,1-27.46,23.53h-3.25v181.8"/><line class="cls-1" x1="332.38" y1="585.34" x2="535.51" y2="585.34"/><circle class="cls-1" cx="433.95" cy="86.87" r="69.94"/><path class="cls-1" d="M408.59,181.34h-10c-21.82,0-31.93,18.6-36.5,40.61,0,0-32.4,149.93-32.4,158.06s9.17,23.53,27.46,23.53h33.93v181.8"/><path class="cls-1" d="M452.41,181.34h10c21.81,0,31.92,18.6,36.49,40.61,0,0,32.4,149.93,32.4,158.06s-9.17,23.53-27.46,23.53H469.94v181.8"/></svg>
