<svg id="ikoner" xmlns="http://www.w3.org/2000/svg" viewBox="0 0 595.28 595.28"><defs><style>.cls-1{fill:none;stroke:#ffffff;stroke-miterlimit:10;stroke-width:9px;}.cls-2{fill:#008b8b;}</style></defs><title>Okonomi</title><rect class="cls-1" x="88.48" y="32.1" width="432.24" height="539.62" rx="49.08" ry="49.08"/><rect class="cls-1" x="135.36" y="119.74" width="337" height="88.39"/><rect class="cls-1" x="135.36" y="284.42" width="80.03" height="34.97" rx="3.09" ry="3.09"/><rect class="cls-1" x="265.93" y="284.42" width="80.03" height="34.97" rx="3.09" ry="3.09"/><rect class="cls-1" x="398.1" y="284.42" width="80.03" height="34.97" rx="3.09" ry="3.09"/><rect class="cls-1" x="135.36" y="369" width="80.03" height="34.97" rx="3.09" ry="3.09"/><rect class="cls-1" x="265.93" y="369" width="80.03" height="34.97" rx="3.09" ry="3.09"/><rect class="cls-1" x="398.1" y="369" width="80.03" height="34.97" rx="3.09" ry="3.09"/><rect class="cls-1" x="135.36" y="456.54" width="80.03" height="34.97" rx="3.09" ry="3.09"/><rect class="cls-1" x="265.93" y="456.54" width="80.03" height="34.97" rx="3.09" ry="3.09"/><rect class="cls-1" x="398.1" y="456.54" width="80.03" height="34.97" rx="3.09" ry="3.09"/><path class="cls-2" d="M413.64,165.23c0-11.25.37-13.56,1.11-15.79,2.09-6.48,7.31-10.36,15.28-10.36s13.19,3.88,15.27,10.36c.75,2.23,1.12,4.54,1.12,15.79s-.37,13.56-1.12,15.8c-2.08,6.48-7.3,10.35-15.27,10.35s-13.19-3.87-15.28-10.35C414,178.79,413.64,176.48,413.64,165.23ZM430,182.59c2.61,0,4.39-1.12,5.14-3.43.45-1.34.59-2.83.59-13.93s-.14-12.59-.59-13.93c-.75-2.31-2.53-3.43-5.14-3.43s-4.39,1.12-5.14,3.43c-.45,1.34-.6,2.83-.6,13.93s.15,12.59.6,13.93C425.64,181.47,427.34,182.59,430,182.59Z"/></svg>
