<svg id="ikoner" xmlns="http://www.w3.org/2000/svg" viewBox="0 0 595.28 595.28"><defs><style>.cls-1{fill:none;stroke:#ffffff;stroke-miterlimit:10;stroke-width:9px;}</style></defs><title>Penge</title><path class="cls-1" d="M539.64,501.78c0,27.21-66.18,49.27-147.82,49.27-22.29,0-50.07-2.07-69-5"/><path class="cls-1" d="M539.64,448.29c0,27.21-66.18,49.27-147.82,49.27-19.06,0-43.42-2.92-60.15-5.11"/><path class="cls-1" d="M539.64,394.8c0,27.21-66.18,49.27-147.82,49.27a518.25,518.25,0,0,1-60.15-3.93"/><path class="cls-1" d="M539.64,341.16c0,27.21-66.18,49.27-147.82,49.27a507,507,0,0,1-56.65-3.61"/><path class="cls-1" d="M539.64,287.67c0,27.21-66.18,49.27-147.82,49.27a415.24,415.24,0,0,1-56.65-3.75"/><path class="cls-1" d="M539.64,234.18c0,27.21-66.18,49.27-147.82,49.27S244,261.39,244,234.18"/><path class="cls-1" d="M539.64,180.69c0,27.22-66.18,49.28-147.82,49.28S244,207.91,244,180.69"/><path class="cls-1" d="M539.64,127.2c0,27.22-66.18,49.28-147.82,49.28S244,154.42,244,127.2"/><ellipse class="cls-1" cx="391.82" cy="73.72" rx="147.82" ry="49.27"/><line class="cls-1" x1="244" y1="73.72" x2="244" y2="272.77"/><line class="cls-1" x1="539.64" y1="73.72" x2="539.64" y2="501.78"/><line class="cls-1" x1="33.79" y1="317.45" x2="33.79" y2="531.4"/><path class="cls-1" d="M329.43,531.4c0,27.21-66.18,49.27-147.82,49.27S33.79,558.61,33.79,531.4"/><path class="cls-1" d="M329.43,477.91c0,27.22-66.18,49.28-147.82,49.28S33.79,505.13,33.79,477.91"/><path class="cls-1" d="M329.43,424.42c0,27.22-66.18,49.28-147.82,49.28S33.79,451.64,33.79,424.42"/><path class="cls-1" d="M329.43,370.94c0,27.21-66.18,49.27-147.82,49.27S33.79,398.15,33.79,370.94"/><ellipse class="cls-1" cx="181.61" cy="317.45" rx="147.82" ry="49.27"/><line class="cls-1" x1="329.43" y1="317.45" x2="329.43" y2="534.79"/></svg>
