<svg id="ikoner" xmlns="http://www.w3.org/2000/svg" viewBox="0 0 595.28 595.28"><defs><style>.cls-1{fill:none;stroke:#ffffff;stroke-linejoin:round;stroke-width:9px;}</style></defs><title>Samarbejde</title><path class="cls-1" d="M127.9,371.65c-11.3,9.26-29.7,40.24-17.75,51.94,16.91,16.55,36,6.72,52.56-7.13a58.44,58.44,0,0,0,8.06-9c-10.89,10.89-22,37.85-11.7,50.7,10.25,12.57,36.56,9.92,48.52-1.1l10.13-11.86c-11.51,9.34-16.38,33.34-5.31,43.41,10.82,9.83,30.08,4.55,43.55-5.63l4-4.47s-4.82,27.75,6.22,35.65c10.78,7.71,23.79,4.19,34.32-4.38"/><path class="cls-1" d="M501.08,368.76l-19-24.16c2.6,11-5.41,29.83-13.69,38.26L348.92,283.79c-11.8-2-23.52-3.86-35.25-5.76-9-1.26-20.22,13.48-25.91,18.61-19.72,17.83-54,32.73-79.6,11-1-1.12,40.23-48,62.07-73.86h.07c2.38-.91,26.53-10,36.43-13.69l46.2-15.23c8.43-.92,9.46-8.47,16.48-3.28l-12.47-15.82,77.93-61.44L579.08,307.39Z"/><path class="cls-1" d="M468.36,382.86c4.63,3.72,18.89,15.48,18.89,21.16.07,4.92.27,11.85-3,15.64-5.4,6.53-9.7,7.44-13.76,8.28-4.42.93-10.35,1.59-15.69-1.28,0,0-104.51-70.58-103-69.32l86,57.87c2.67,2.81,5,16.3,5,23.74.14,3.58-.4,6.83-4.26,11.53a33.53,33.53,0,0,1-16.19,10.41c-6.41,2-17.57-.08-22.69-3.17-2.32-1.68-83.56-61.37-82-60l74.44,54.61c3.37,2.67,4.46,12.93,4.46,19.75,0,3.72-1.12,7.37-4.77,11.65-5.48,6.11-9.9,7.3-14.4,7.65-5.4.08-14.88-.29-19.17-3.17-2.17-1.61-70.94-56.39-69.54-55.27l61.57,49a32.81,32.81,0,0,1,.86,13.39c-.71,3.84-4.19,9.28-6.72,12.23-3.79,4.71-17.46,15.29-22.93,15.35-4,0-210.21-161.83-210.49-169.9-.07-5.69,9.8-19.92,13.66-24.84L95,365,17.67,302.69l146.11-181.5,77.3,62.21-20.43,25.35a27.07,27.07,0,0,1,9.69-2,27.92,27.92,0,0,1,17.06,5.75l22.83,21.28"/></svg>
