<svg id="ikoner" xmlns="http://www.w3.org/2000/svg" viewBox="0 0 595.28 595.28"><defs><style>.cls-1{fill:none;stroke:#ffffff;stroke-miterlimit:10;stroke-width:9px;}</style></defs><title>Samtale</title><path class="cls-1" d="M409.61,169.39V56.64A25.82,25.82,0,0,0,383.8,30.82H39.09A25.82,25.82,0,0,0,13.27,56.64v177a25.82,25.82,0,0,0,25.82,25.82H80.26L104.58,308l65.48-48.54h7.63"/><path class="cls-1" d="M554.11,165.31H207.57a26,26,0,0,0-25.95,25.95V369.15a26,26,0,0,0,25.95,26H421.7l66,51.77,14.67-51.77h51.72a26,26,0,0,0,25.95-26V191.26A26,26,0,0,0,554.11,165.31Z"/><circle class="cls-1" cx="305.69" cy="287.09" r="20.92"/><circle class="cls-1" cx="387.36" cy="287.09" r="20.92"/><circle class="cls-1" cx="465.54" cy="287.09" r="20.92"/></svg>
