<svg id="ikoner" xmlns="http://www.w3.org/2000/svg" viewBox="0 0 595.28 595.28"><defs><style>.cls-1{fill:none;stroke:#ffffff;stroke-miterlimit:10;stroke-width:9px;}</style></defs><title>Vindmoelle</title><path class="cls-1" d="M287.46,567.52l8.17-306.44c0-2.23,3-4,6.72-4h1.92c3.71,0,6.72,1.8,6.72,4l8.18,306.44"/><path class="cls-1" d="M313.65,222.11l-10.24-205h0c-.12-1.57-2.46-2.83-5.38-2.83s-5.24,1.25-5.34,2.81v0L282.43,198.75l12.32,23.36"/><path class="cls-1" d="M291,225.74,110.09,343.53h0c-1.3.89-1.21,3.56.26,6.07s3.72,3.9,5.12,3.21l0,0,156.39-79.61,16.69-20.44"/><path class="cls-1" d="M313.65,252.9,495.8,347.56h0c1.42.7,3.69-.69,5.16-3.21s1.56-5.15.27-6l0,0L349.57,237.75l-27.45-1.16"/><rect class="cls-1" x="286.72" y="223.86" width="33.19" height="33.19" rx="10.1" ry="10.1"/><line class="cls-1" x1="208.92" y1="569.92" x2="398.38" y2="569.92"/></svg>
