<svg id="ikoner" xmlns="http://www.w3.org/2000/svg" viewBox="0 0 595.28 595.28"><defs><style>.cls-1{fill:none;stroke:#ffffff;stroke-miterlimit:10;stroke-width:9px;}</style></defs><title>Virksomhed</title><rect class="cls-1" x="99.85" y="84.67" width="65.38" height="28.57" rx="2.52" ry="2.52"/><rect class="cls-1" x="99.85" y="151.71" width="65.38" height="28.57" rx="2.52" ry="2.52"/><rect class="cls-1" x="99.85" y="209.71" width="65.38" height="28.57" rx="2.52" ry="2.52"/><line class="cls-1" x1="14.45" y1="574.73" x2="577.65" y2="574.73"/><rect class="cls-1" x="143.44" y="457.51" width="43.59" height="19.05" rx="2.52" ry="2.52"/><rect class="cls-1" x="220.68" y="457.51" width="43.59" height="19.05" rx="2.52" ry="2.52"/><rect class="cls-1" x="292.65" y="457.51" width="43.59" height="19.05" rx="2.52" ry="2.52"/><rect class="cls-1" x="364.35" y="457.51" width="43.59" height="19.05" rx="2.52" ry="2.52"/><path class="cls-1" d="M475,267.71H443.1a13.85,13.85,0,0,0-13.85,13.85L407.52,389.32H380.73V333.2l-80.32,56.12H285.19V333.2l-80.32,56.12H189.64l3.5-56.12-84,56.12V574.73H518.37V537.9L488.62,281.39A13.63,13.63,0,0,0,475,267.71Z"/><polyline class="cls-1" points="299.88 299.65 299.88 17.81 63.84 17.81 63.84 574.74"/></svg>
