<?xml version="1.0" encoding="utf-8"?><svg xmlns="http://www.w3.org/2000/svg" xmlns:xlink="http://www.w3.org/1999/xlink"><symbol viewBox="0 0 13 13" id="cross" xmlns="http://www.w3.org/2000/svg"><path d="M13 1.309L7.809 6.5 13 11.691 11.691 13 6.5 7.809 1.309 13 0 11.691 5.191 6.5 0 1.309 1.309 0 6.5 5.191 11.691 0 13 1.309z"/></symbol><symbol viewBox="0 0 640 640" id="menu" xmlns="http://www.w3.org/2000/svg"><path d="M0 96h640v64H0V96zm0 192h640v64H0v-64zm0 192h640v64H0v-64z"/></symbol><symbol viewBox="0 0 32 32" id="search" xmlns="http://www.w3.org/2000/svg"><path d="M21.001 23.307a12.927 12.927 0 0 1-7.985 2.739C5.828 26.046 0 20.216 0 13.023 0 5.83 5.828 0 13.016 0c7.189 0 13.016 5.83 13.016 13.023 0 3.024-1.03 5.807-2.758 8.018l.021-.029L32 29.688 29.69 32l-8.672-8.693H21zm-7.972-.52c5.391 0 9.762-4.374 9.762-9.768 0-5.394-4.37-9.767-9.762-9.767S3.267 7.625 3.267 13.02c0 5.394 4.37 9.767 9.762 9.767z"/></symbol></svg>